<?xml version="1.0" standalone="no"?>
<!DOCTYPE svg PUBLIC "-//W3C//DTD SVG 20010904//EN"
 "http://www.w3.org/TR/2001/REC-SVG-20010904/DTD/svg10.dtd">
<svg version="1.0" xmlns="http://www.w3.org/2000/svg"
 width="300.000000pt" height="300.000000pt" viewBox="0 0 300.000000 300.000000"
 preserveAspectRatio="xMidYMid meet">
<metadata>
Created by potrace 1.10, written by Peter Selinger 2001-2011
</metadata>
<g transform="translate(0.000000,300.000000) scale(0.100000,-0.100000)"
fill="#000000" stroke="none">
<path d="M588 2839 c-40 -23 -42 -76 -4 -101 20 -14 63 -8 79 10 47 52 -15
127 -75 91z"/>
<path d="M2380 2830 c-24 -24 -25 -48 -4 -78 19 -27 64 -29 87 -4 53 58 -28
137 -83 82z"/>
<path d="M520 2615 c-70 -20 -106 -42 -150 -92 -53 -61 -74 -131 -65 -221 4
-37 10 -431 14 -877 3 -445 7 -811 9 -812 1 -2 74 -3 162 -3 184 0 222 10 267
68 l28 37 3 564 2 564 113 -117 c62 -64 116 -116 120 -116 3 0 2 12 -3 26 -14
36 -12 89 4 129 13 31 17 34 48 29 51 -9 88 25 88 81 0 36 5 48 31 69 46 39
80 54 137 62 47 6 66 17 43 26 -5 2 -131 122 -280 267 -149 145 -286 273 -303
284 -73 44 -181 57 -268 32z m241 -67 c4 -7 -2 -19 -16 -30 -21 -17 -46 -26
-32 -12 3 4 0 19 -8 35 -8 15 -15 30 -15 33 0 9 64 -14 71 -26z m-81 -19 c0
-6 -7 -23 -16 -38 -12 -21 -24 -27 -53 -27 -105 -3 -177 -110 -134 -199 43
-90 136 -122 219 -76 30 16 53 21 99 19 52 -3 61 -6 74 -29 13 -24 13 -29 -2
-53 -20 -29 -57 -35 -77 -11 -16 19 -49 19 -74 0 -30 -23 -157 -20 -204 4 -81
42 -122 111 -122 206 0 52 5 73 24 103 26 41 60 73 103 96 33 18 163 22 163 5z
m146 -104 c12 -22 26 -59 30 -82 l7 -43 -42 0 c-33 0 -41 4 -41 18 0 10 -12
41 -26 69 -24 50 -25 53 -9 83 16 31 17 31 37 13 11 -10 31 -36 44 -58z m267
-183 c103 -102 187 -188 187 -192 0 -4 -25 -20 -55 -36 l-55 -29 -15 22 c-20
28 -88 97 -144 146 -33 29 -50 38 -69 34 -19 -4 -33 3 -58 30 -32 34 -34 35
-103 31 -74 -3 -80 0 -58 40 l13 23 24 -26 c32 -34 82 -34 115 0 14 13 25 30
25 37 0 24 -30 112 -47 137 -17 26 -16 26 18 -3 19 -15 118 -111 222 -214z
m-398 160 c-2 -2 -11 3 -21 12 -13 14 -14 19 -3 32 12 14 14 13 21 -12 4 -15
5 -30 3 -32z m-27 -32 c45 -42 15 -123 -46 -123 -45 0 -72 28 -72 73 0 63 72
93 118 50z m-166 -286 c53 -27 47 -26 242 -12 48 4 56 -11 16 -34 -44 -25 -39
-54 20 -120 55 -62 58 -68 32 -61 -10 2 -26 -5 -37 -17 -19 -21 -20 -42 -23
-558 -3 -596 -1 -575 -71 -615 -28 -17 -51 -19 -168 -18 -74 1 -139 4 -144 7
-5 3 -9 346 -9 782 l0 777 46 -53 c25 -29 69 -64 96 -78z m536 -6 c51 -50 92
-95 92 -98 0 -4 -11 -17 -25 -30 l-26 -24 -79 79 c-55 55 -78 85 -74 95 4 8 9
27 12 43 2 15 5 27 6 27 1 0 44 -41 94 -92z m-43 -248 c-16 -17 -32 -30 -36
-30 -6 0 -211 203 -206 205 1 0 22 7 47 16 l45 15 89 -89 89 -88 -28 -29z m98
69 c23 1 27 -3 27 -23 0 -25 -31 -51 -52 -44 -5 2 -16 21 -23 42 -12 34 -12
37 3 30 10 -3 29 -6 45 -5z m-113 -136 c0 -5 -4 -14 -9 -22 -8 -12 -12 -12
-25 -2 -23 19 -20 31 9 31 14 0 25 -3 25 -7z"/>
<path d="M563 1996 l-28 -24 -3 -186 c-3 -153 0 -192 12 -218 15 -29 15 -33
-4 -63 -25 -41 -25 -56 2 -90 20 -26 20 -28 5 -55 -15 -24 -17 -65 -17 -303 0
-174 4 -286 11 -306 20 -56 79 -69 120 -25 l24 26 3 271 c2 226 0 280 -13 320
-15 44 -15 51 -1 73 21 30 20 59 -1 95 -14 24 -15 33 -5 49 13 21 18 383 6
415 -6 15 -54 45 -73 45 -5 0 -23 -11 -38 -24z m85 -222 c3 -182 2 -190 -19
-206 -16 -13 -26 -15 -40 -8 -18 10 -19 24 -19 210 0 179 2 200 18 209 12 7
23 6 37 -3 19 -13 20 -26 23 -202z m-3 -308 c0 -48 -21 -65 -59 -48 -19 8 -26
19 -26 40 0 37 18 54 55 50 28 -3 30 -6 30 -42z m0 -415 c0 -278 -1 -305 -17
-315 -13 -8 -23 -8 -35 0 -16 10 -18 38 -21 305 -1 162 0 300 3 307 3 8 17 12
37 10 l33 -3 0 -304z"/>
<path d="M2415 2616 c-68 -17 -106 -38 -143 -81 -57 -64 -75 -112 -76 -195 0
-65 4 -82 29 -129 16 -29 47 -68 68 -86 l38 -33 -143 -140 c-79 -77 -169 -164
-200 -193 -32 -29 -58 -61 -58 -70 0 -19 89 -111 102 -107 4 2 49 45 102 96
52 50 97 92 100 92 3 0 6 -231 6 -513 l0 -514 23 -43 c16 -30 37 -51 67 -67
40 -21 56 -23 200 -23 108 0 160 4 168 12 9 9 12 195 12 777 0 622 2 767 13
780 23 27 47 105 47 152 0 134 -91 250 -225 285 -59 16 -65 16 -130 0z m128
-92 c94 -32 150 -130 132 -234 -7 -44 -61 -111 -107 -134 -44 -22 -130 -20
-178 4 -47 24 -97 93 -106 147 -14 87 46 187 129 217 55 19 74 19 130 0z m141
-331 c-5 -10 -11 -360 -14 -778 l-5 -760 -140 -3 c-161 -3 -198 8 -227 68 -16
32 -18 79 -18 525 0 508 -1 523 -42 548 -17 11 -19 10 -153 -107 -59 -52 -74
-54 -99 -12 -9 15 16 44 175 199 103 100 190 190 193 200 3 9 1 28 -4 42 l-10
25 38 -17 c93 -42 201 -23 272 49 41 41 45 44 34 21z"/>
<path d="M2427 2424 c-31 -17 -47 -49 -47 -95 0 -41 15 -66 50 -84 40 -21 71
-19 110 8 108 73 2 233 -113 171z m97 -56 c21 -30 20 -51 -3 -72 -27 -25 -72
-17 -90 15 -13 24 -13 29 2 53 22 34 69 36 91 4z"/>
<path d="M2373 1996 l-28 -24 -3 -178 c-3 -147 0 -185 13 -221 16 -42 16 -45
-1 -64 -22 -25 -22 -73 1 -99 16 -18 16 -22 1 -60 -13 -34 -16 -85 -16 -321
l0 -281 29 -29 c45 -45 91 -34 117 26 21 52 20 536 -2 600 -14 42 -14 49 0 70
20 31 20 64 0 94 -13 18 -14 28 -5 47 7 16 11 97 11 220 0 194 0 195 -25 219
-30 31 -56 32 -92 1z m81 -32 c9 -24 7 -377 -3 -392 -5 -8 -21 -12 -37 -10
l-29 3 -3 195 c-1 107 0 200 2 207 8 19 63 16 70 -3z m6 -473 c5 -11 10 -26
10 -35 0 -20 -28 -46 -50 -46 -40 0 -66 60 -38 88 19 19 66 15 78 -7z m-6
-147 c9 -24 7 -587 -3 -602 -5 -8 -21 -12 -37 -10 l-29 3 -3 300 c-1 165 0
305 3 312 7 19 62 16 69 -3z"/>
<path d="M1898 2255 l-238 -235 -67 -1 c-38 0 -82 -6 -100 -12 -46 -17 -199
-169 -213 -212 -25 -75 34 -155 114 -155 47 0 69 13 145 88 l44 43 146 -142
c180 -176 201 -197 201 -208 0 -16 -30 -41 -49 -41 -10 0 -59 41 -108 90 -75
75 -96 90 -122 90 -25 0 -32 -5 -37 -26 -6 -24 4 -37 90 -122 79 -78 96 -101
94 -121 -2 -21 -9 -27 -33 -29 -27 -3 -41 8 -113 83 -79 81 -100 93 -136 79
-35 -13 -16 -50 70 -135 47 -46 89 -92 95 -101 12 -21 2 -46 -23 -59 -18 -10
-31 -1 -107 75 -48 47 -94 86 -104 86 -11 0 -17 8 -17 21 0 29 -53 79 -84 79
-21 0 -26 5 -26 23 0 29 -37 65 -70 70 -14 2 -26 10 -26 18 -1 8 -2 23 -3 35
0 12 -12 33 -26 48 -19 20 -33 26 -67 26 -47 0 -65 -10 -126 -68 -45 -43 -62
-72 -62 -102 0 -34 31 -78 61 -89 21 -7 26 -14 22 -30 -10 -40 6 -86 36 -104
16 -9 37 -17 48 -17 13 0 18 -8 20 -27 1 -33 45 -73 79 -73 19 0 24 -5 24 -26
0 -15 12 -38 29 -55 24 -24 38 -29 75 -29 40 0 53 6 94 43 26 23 53 50 60 60
17 22 31 22 51 -2 23 -26 75 -51 106 -51 67 0 125 58 125 124 0 22 4 26 31 26
44 0 89 47 89 94 0 34 2 36 33 36 51 0 97 50 97 104 0 22 -6 48 -13 56 -7 8
-94 95 -193 193 -179 175 -181 177 -225 177 -40 0 -48 -5 -110 -66 -58 -57
-71 -66 -93 -60 -20 5 -26 13 -26 35 0 23 15 42 80 100 l81 71 137 0 137 1
169 163 169 163 -6 45 c-6 44 4 133 18 171 4 9 3 17 -1 17 -5 0 -116 -106
-246 -235z m64 -108 c-162 -163 -185 -179 -248 -175 -43 3 -46 5 -32 18 8 8
100 98 204 200 l189 185 7 -50 7 -50 -127 -128z m-822 -632 c11 -14 7 -23 -30
-60 -49 -50 -64 -55 -80 -25 -9 17 -5 26 29 60 43 43 61 49 81 25z m60 -49 c0
-8 -7 -17 -16 -20 -28 -11 -34 -6 -22 14 15 23 38 27 38 6z m28 -58 c19 -19
16 -25 -39 -78 -54 -53 -69 -59 -89 -34 -11 13 -5 23 41 70 56 56 67 62 87 42z
m66 -27 c16 -18 15 -19 -17 -39 l-35 -20 17 39 c9 21 16 39 17 39 0 0 9 -8 18
-19z m-200 -3 c-19 -33 -27 -38 -40 -27 -21 17 -17 27 14 32 15 2 28 5 30 6 2
0 0 -5 -4 -11z m766 -49 c0 -24 -9 -24 -26 -1 -19 24 -17 31 6 25 11 -3 20
-14 20 -24z m-522 -21 c18 -18 16 -22 -40 -77 -54 -53 -56 -55 -82 -45 -27 10
-18 33 32 84 49 50 70 58 90 38z m69 -34 c6 -16 -11 -34 -34 -34 -8 0 -8 6 0
25 14 29 25 32 34 9z m-225 -26 c-9 -18 -18 -35 -20 -37 -1 -3 -9 2 -18 11
-14 14 -12 17 18 36 18 11 34 21 35 21 1 1 -6 -14 -15 -31z m561 -45 c-8 -21
-21 -15 -38 17 l-15 29 29 -17 c16 -9 27 -22 24 -29z m-295 5 c18 -18 16 -23
-44 -82 -57 -58 -78 -67 -88 -40 -11 28 -7 35 42 85 48 49 69 58 90 37z m81
-42 l22 -24 -39 -3 c-38 -4 -38 -4 -28 23 13 34 17 34 45 4z m-244 -29 c-8
-21 -17 -37 -19 -37 -1 0 -11 9 -21 20 -18 19 -17 20 13 31 18 6 32 16 32 22
0 6 2 8 5 5 3 -3 -2 -21 -10 -41z"/>
<path d="M817 473 c-4 -3 -7 -69 -7 -145 l0 -138 30 0 30 0 0 66 c0 43 4 64
11 62 6 -2 26 -30 44 -63 31 -57 35 -60 70 -60 35 0 39 3 70 60 18 33 38 61
44 63 7 2 11 -19 11 -62 l0 -66 30 0 30 0 0 140 c0 121 -2 142 -16 147 -9 3
-24 2 -33 -4 -15 -10 -74 -103 -107 -170 -21 -43 -39 -42 -62 5 -26 54 -73
134 -90 155 -15 17 -43 23 -55 10z m58 -93 c7 -21 0 -40 -16 -40 -5 0 -9 14
-9 30 0 34 15 40 25 10z m265 -10 c0 -31 -6 -36 -28 -21 -12 7 -12 12 -1 30
19 29 29 26 29 -9z"/>
<path d="M1204 471 c-2 -2 -4 -15 -4 -28 0 -22 2 -23 94 -23 104 0 134 -7 165
-41 28 -30 27 -70 -3 -102 -27 -29 -69 -40 -141 -35 l-50 3 -3 62 c-3 63 -15
79 -47 67 -12 -5 -15 -25 -15 -95 l0 -89 125 0 125 0 36 33 c40 37 56 89 44
143 -10 45 -53 91 -92 99 -33 8 -227 12 -234 6z"/>
<path d="M1564 471 c-2 -2 -4 -67 -4 -143 l0 -138 30 0 29 0 3 113 3 112 94 3
c63 2 98 -1 108 -10 27 -22 -13 -38 -100 -38 l-78 0 3 -32 c2 -26 17 -43 74
-91 68 -55 75 -58 119 -55 l46 3 -62 50 c-35 28 -63 55 -64 60 0 6 21 11 47
13 53 3 88 35 88 79 0 22 -39 72 -57 74 -42 3 -276 3 -279 0z"/>
<path d="M1927 473 c-4 -3 -7 -69 -7 -145 l0 -138 28 0 29 0 -1 87 c-1 53 3
87 10 90 6 2 28 -14 50 -34 23 -21 66 -62 97 -90 42 -40 63 -53 86 -53 l31 0
0 146 c0 145 0 145 -22 142 -22 -3 -23 -8 -26 -93 -2 -49 -6 -93 -10 -97 -4
-4 -32 15 -62 44 -30 28 -78 73 -107 99 -48 45 -80 59 -96 42z"/>
</g>
</svg>
